# xmcd
#
# Track frame offsets:
#	150
#	13609
#	24780
#	55457
#	73380
#	93052
#	108867
#	126855
#	150850
#	172987
#	195572
#
# Disc length: 2887 seconds
#
# Revision: 1
# Processed by: cddbd v1.4PL0 Copyright (c) Steve Scherf et al.
# Submitted via: EasyCDDAExtractor 6.2.0.3
#
DISCID=7e0b450b
DTITLE=Mark Gorman - All Night Long
DYEAR=2001
DGENRE=Country
TTITLE0=All Night Long
TTITLE1=Do You Think She Loves Me
TTITLE2=Todo El Tiempo (All The Time)
TTITLE3=Texas Bound
TTITLE4=Time To Ride
TTITLE5=Wounded Madam
TTITLE6=Texas Kind Of Country
TTITLE7=Gone Like The Buffalo
TTITLE8=Blue Bonnet Skies
TTITLE9=Santa Anna Tortillas (The Tortilla Song)
TTITLE10=I'm Goin' Home
EXTD=
EXTT0=
EXTT1=
EXTT2=
EXTT3=
EXTT4=
EXTT5=
EXTT6=
EXTT7=
EXTT8=
EXTT9=
EXTT10=
PLAYORDER=
